<svg xmlns="http://www.w3.org/2000/svg" width="144" height="110" viewBox="0 0 144 110"><defs><style>.a,.b{fill:#fff;}.b{font-size:24px;font-family:Roboto-Bold, Roboto;font-weight:700;letter-spacing:0.12em;}</style></defs><g transform="translate(-528 -485)"><g transform="translate(4434.895 9914)"><path class="a" d="M26.029-24.7a16.3,16.3,0,0,0-13.057,5.787l-.148-5.045H3.105V16.029h10.09V-7.489c0-5.193,3.709-8.606,9.348-8.606s9.348,3.413,9.348,8.606V16.029H41.98V-9.121C41.98-18.469,35.6-24.7,26.029-24.7ZM89.015,16.771a21.03,21.03,0,0,0,15.209-5.564L98.512,4.53a11.8,11.8,0,0,1-9.051,3.561C82.635,8.091,78.184,3.268,78.184-4s4.526-12.093,11.211-12.093a11.435,11.435,0,0,1,7.864,2.819l5.713-6.825a22,22,0,0,0-13.725-4.6C76.337-24.7,67.732-16.392,67.732-4,67.723,8.462,76.255,16.771,89.015,16.771ZM147.105-4.6c0-12.093-8.012-20.113-19.948-20.113-12.019,0-19.957,8.383-19.957,21-.008,12.324,8.153,20.484,20.394,20.484a20.5,20.5,0,0,0,17.434-8.754l-7.79-3.932a12.418,12.418,0,0,1-9.793,4.748c-5.861,0-8.828-3.561-9.57-9.2h28.934A36.6,36.6,0,0,0,147.105-4.6ZM127.157-16.763c5.416,0,8.606,3.487,9.348,9.562h-18.63c.816-6.075,3.932-9.562,9.274-9.562Z" transform="translate(-3910 -9388.975)"/><circle class="a" cx="4.946" cy="4.946" r="4.946" transform="translate(-3857.609 -9429)"/></g><text class="b" transform="translate(600 589)"><tspan x="-37.496" y="0">DTVM</tspan></text></g></svg>